<svg xmlns="http://www.w3.org/2000/svg" viewBox="0 0 64 64" id="tent">
  <g style="isolation:isolate">
    <g id="Highlight" style="mix-blend-mode:overlay">
      <path fill="#14cc00" d="M54.24,47.29v5.6a2,2,0,0,1-2,2H11.63a2,2,0,0,1-2-2v-5.6A2,2,0,0,1,10,46.12l10.4-14.35L29.31,19.5l1-1.4a2,2,0,0,1,1.53-.82h.08a2,2,0,0,1,1.61.82l1.16,1.59,8.75,12.08,10.4,14.35a2,2,0,0,1,.38,1.17"></path>
      <path fill="#595b59" d="M38.74,54.88H25.15V48.8A6.8,6.8,0,0,1,31.94,42h0a6.81,6.81,0,0,1,6.8,6.8Z"></path>
      <path fill="#ff0" d="M4.94 56.38a1.5 1.5 0 01-1.5-1.5v-14a1.5 1.5 0 113 0v14a1.5 1.5 0 01-1.5 1.5M59.06 56.94a1.5 1.5 0 01-1.5-1.5v-14a1.5 1.5 0 013 0v14a1.5 1.5 0 01-1.5 1.5"></path>
      <path fill="#b5b5b5" d="M25.91 13.65a4.25 4.25 0 01-3 4.08H12.44l-.36-.13A4.26 4.26 0 0113.6 9.39a4.25 4.25 0 017.59 0l.46 0a4.26 4.26 0 014.26 4.26M52.71 19.35a3 3 0 01-2.16 2.89H43.16l-.25-.09A3 3 0 0144 16.33a3 3 0 015.38 0l.33 0a3 3 0 013 3"></path>
      <path fill="#bfbfbf" d="M59.06,39.94h0a1.5,1.5,0,0,1,1.5,1.5v14a1.5,1.5,0,0,1-1.5,1.5h0a1.5,1.5,0,0,0,1.5-1.5v-14a1.5,1.5,0,0,0-1.5-1.5"></path>
      <path fill="#bfbf00" d="M59.06,39.94a1.5,1.5,0,0,0-1.5,1.5v14a1.5,1.5,0,0,0,3,0v-14a1.5,1.5,0,0,0-1.5-1.5"></path>
      <path fill="#bfbfbf" d="M46.63,14.68h0m0,0h0"></path>
      <path fill="#888" d="M46.67,14.68h0a3,3,0,0,0-2,.77,2.92,2.92,0,0,1,.69.9l.33,0a3,3,0,0,1,.86,5.91h4a3,3,0,0,0-.81-5.91h-.05l-.33,0a3,3,0,0,0-2.69-1.67"></path>
      <path fill="#bfbfbf" d="M52.27,54.88h0m0,0h0M33.54,18.09h0l1.16,1.59,8.75,12.08,10.1,13.94h0L43.46,31.77,34.71,19.69,33.55,18.1h0"></path>
      <path fill="#0f9900" d="M33.26,17.79l-.84.39,7,13.59,10.4,14.35a2,2,0,0,1,.38,1.17v5.6a2,2,0,0,1-2,2h4a2,2,0,0,0,1.28-.5V45.71L43.46,31.77,34.71,19.69,33.55,18.1h0a2,2,0,0,0-.28-.3"></path>
      <path fill="#fff" d="M11.62,54.88h0m0,0h0m0,0h0M14,40.71l-3.51,4.84h0L14,40.71"></path>
      <path fill="#28ff00" d="M31.31,17.42c-.19,0-.4.32-.59.64s-.34.65-.44.65-.1-.1-.12-.37l-.85,1.16L20.42,31.77,14,40.71l-3.51,4.84v8.92a1.94,1.94,0,0,0,1.16.41h4a2,2,0,0,1-2-2v-5.6A2,2,0,0,1,14,46.12l10.4-14.35,7.19-14c-.09-.22-.19-.31-.3-.31"></path>
      <path fill="#fff" d="M6.44,54.9a1.5,1.5,0,0,1-1.5,1.48,1.5,1.5,0,0,0,1.5-1.48M4.94,39.38h0a1.5,1.5,0,0,1,1.5,1.5v14h0v-14a1.5,1.5,0,0,0-1.5-1.5"></path>
      <path fill="#ff0" d="M4.94,39.38h0a1.49,1.49,0,0,0-1.5,1.45V54.88a1.5,1.5,0,0,0,1.5,1.5h0a1.5,1.5,0,0,0,1.5-1.48v-14a1.5,1.5,0,0,0-1.5-1.5"></path>
      <path fill="#fff" d="M17.42,7.06h0m0,0A4.24,4.24,0,0,0,13.6,9.39a4.26,4.26,0,0,0-4.19,4.26h0A4.26,4.26,0,0,1,13.6,9.39a4.24,4.24,0,0,1,3.79-2.33h0"></path>
      <path fill="#fff" d="M17.39,7.06A4.24,4.24,0,0,0,13.6,9.39a4.26,4.26,0,0,0-1.52,8.21l.36.13h4l-.36-.13A4.26,4.26,0,0,1,17.6,9.39a4.31,4.31,0,0,1,1.79-1.82,4.09,4.09,0,0,0-2-.51h0"></path>
    </g>
    <g id="Line">
      <path fill="none" stroke="#000" stroke-linecap="round" stroke-linejoin="round" stroke-width="2" d="M54.24,47.29v5.6a2,2,0,0,1-2,2H11.63a2,2,0,0,1-2-2v-5.6A2,2,0,0,1,10,46.12l10.4-14.35L29.31,19.5l1-1.4a2,2,0,0,1,1.53-.82h.08a2,2,0,0,1,1.61.82l1.16,1.59,8.75,12.08,10.4,14.35A2,2,0,0,1,54.24,47.29Z"></path>
      <path fill="none" stroke="#000" stroke-linecap="round" stroke-linejoin="round" stroke-width="2" d="M31.94 42h0a6.79 6.79 0 016.79 6.79v6.08a0 0 0 010 0H25.15a0 0 0 010 0V48.8A6.79 6.79 0 0131.94 42zM4.94 56.38a1.5 1.5 0 01-1.5-1.5v-14a1.5 1.5 0 113 0v14A1.5 1.5 0 014.94 56.38zM59.06 56.94a1.5 1.5 0 01-1.5-1.5v-14a1.5 1.5 0 013 0v14A1.5 1.5 0 0159.06 56.94z"></path>
      <line x1="9.64" x2="6.44" y1="47.29" y2="50.49" fill="none" stroke="#000" stroke-linecap="round" stroke-linejoin="round" stroke-width="2"></line>
      <line x1="57.56" x2="54.24" y1="49.96" y2="46.64" fill="none" stroke="#000" stroke-linecap="round" stroke-linejoin="round" stroke-width="2"></line>
      <line x1="29.31" x2="6.01" y1="19.5" y2="39.84" fill="none" stroke="#000" stroke-linecap="round" stroke-linejoin="round" stroke-width="2"></line>
      <line x1="58.21" x2="34.71" y1="40.21" y2="19.69" fill="none" stroke="#000" stroke-linecap="round" stroke-linejoin="round" stroke-width="2"></line>
      <path fill="none" stroke="#000" stroke-linecap="round" stroke-linejoin="round" stroke-width="2" d="M25.91 13.65a4.25 4.25 0 01-3 4.08H12.44l-.36-.13A4.26 4.26 0 0113.6 9.39a4.25 4.25 0 017.59 0l.46 0A4.26 4.26 0 0125.91 13.65zM52.71 19.35a3 3 0 01-2.16 2.89H43.16l-.25-.09A3 3 0 0144 16.33a3 3 0 015.38 0l.33 0A3 3 0 0152.71 19.35z"></path>
    </g>
  </g>
</svg>
